<?xml version="1.0" encoding="utf-8"?>
<!-- Generator: Adobe Illustrator 19.2.0, SVG Export Plug-In . SVG Version: 6.00 Build 0)  -->
<svg version="1.0" id="Layer_1" xmlns="http://www.w3.org/2000/svg" xmlns:xlink="http://www.w3.org/1999/xlink" x="0px" y="0px"
   width="27px" height="27px" viewBox="0 0 26.8 26.8" enable-background="new 0 0 26.8 26.8" xml:space="preserve">
<path fill="#F25B26" d="M15.5,13.4L26.3,2.6c0.6-0.6,0.6-1.5,0-2.1c-0.6-0.6-1.5-0.6-2.1,0L13.4,11.3L2.6,0.4C2-0.1,1-0.1,0.4,0.4
	C-0.1,1-0.1,2,0.4,2.6l10.8,10.8L0.4,24.2c-0.6,0.6-0.6,1.5,0,2.1c0.3,0.3,0.7,0.4,1.1,0.4c0.4,0,0.8-0.1,1.1-0.4l10.8-10.8
	l10.8,10.8c0.3,0.3,0.7,0.4,1.1,0.4c0.4,0,0.8-0.1,1.1-0.4c0.6-0.6,0.6-1.5,0-2.1L15.5,13.4z"/>
</svg>
