<?xml version="1.0" encoding="utf-8"?>
<!-- Generator: Adobe Illustrator 19.2.0, SVG Export Plug-In . SVG Version: 6.00 Build 0)  -->
<svg version="1.1" id="Layer_1" xmlns="http://www.w3.org/2000/svg" xmlns:xlink="http://www.w3.org/1999/xlink" x="0px" y="0px"
	 width="300" height="345" viewBox="0 0 298 345.1" enable-background="new 0 0 298 345.1" xml:space="preserve">
<path fill="#DEDEDE" d="M264.6,102.1l5.4-5.4c7.7-7.7,9.1-18.9,3.1-24.9c-6-6-17.2-4.6-24.9,3.1l-5.4,5.4c-21-17-46.6-28.4-74.7-32
	v-9.6h7.7c10.9,0,19.8-8.7,19.8-19.4S186.6,0,175.7,0h-53.3c-10.9,0-19.8,8.7-19.8,19.4s8.9,19.4,19.8,19.4h7.7v9.6
	C56.7,57.6,0,120.2,0,196.1c0,82.3,66.7,149,149,149c82.3,0,149-66.7,149-149C298,160.4,285.5,127.7,264.6,102.1z M149,306.3
	c-60.8,0-110.2-49.3-110.2-110.2c0-60.8,49.3-110.2,110.2-110.2c60.8,0,110.2,49.3,110.2,110.2C259.2,256.9,209.8,306.3,149,306.3z"
	/>
<path fill="#D22856" d="M149.5,69.6C79.6,69.6,23,126.2,23,196.1c0,69.9,56.6,126.5,126.5,126.5S276,266,276,196.1
	C276,126.2,219.4,69.6,149.5,69.6z M149.5,306.8c-60.8,0-110.2-49.3-110.2-110.2c0-60.8,49.3-110.2,110.2-110.2
	c60.8,0,110.2,49.3,110.2,110.2C259.7,257.5,210.3,306.8,149.5,306.8z"/>
<g>
	<path fill="#D22856" d="M144.2,232H84.3v-12.6l21.5-21.7c6.4-6.5,10.5-11,12.5-13.6c2-2.5,3.4-4.9,4.2-7c0.9-2.1,1.3-4.4,1.3-6.7
		c0-3.4-0.9-6-2.8-7.7c-1.9-1.7-4.4-2.5-7.6-2.5c-3.3,0-6.5,0.8-9.7,2.3c-3.1,1.5-6.4,3.7-9.8,6.5l-9.8-11.7
		c4.2-3.6,7.7-6.1,10.5-7.6c2.8-1.5,5.8-2.6,9.1-3.4c3.3-0.8,7-1.2,11-1.2c5.4,0,10.1,1,14.2,2.9c4.1,2,7.3,4.7,9.6,8.2
		c2.3,3.5,3.4,7.5,3.4,12.1c0,3.9-0.7,7.6-2.1,11.1c-1.4,3.5-3.5,7-6.4,10.6c-2.9,3.6-8,8.8-15.4,15.5l-11,10.4v0.8h37.3V232z"/>
	<path fill="#D22856" d="M214.6,214.3h-10.3V232h-17.7v-17.8H150v-12.6l37.6-55.3h16.7v53.8h10.3V214.3z M186.6,200.2v-14.5
		c0-2.4,0.1-5.9,0.3-10.5c0.2-4.6,0.4-7.3,0.5-8h-0.5c-1.4,3.2-3.2,6.3-5.2,9.4L166,200.2H186.6z"/>
</g>
</svg>
