<svg id="Layer_1" xmlns="http://www.w3.org/2000/svg" width="300" height="345" viewBox="0 0 298 345.1"><path fill="#DEDEDE" d="M264.6 102.1l5.4-5.4c7.7-7.7 9.1-18.9 3.1-24.9s-17.2-4.6-24.9 3.1l-5.4 5.4c-21-17-46.6-28.4-74.7-32v-9.6h7.7c10.9 0 19.8-8.7 19.8-19.4S186.6 0 175.7 0h-53.3c-10.9 0-19.8 8.7-19.8 19.4s8.9 19.4 19.8 19.4h7.7v9.6C56.7 57.6 0 120.2 0 196.1c0 82.3 66.7 149 149 149s149-66.7 149-149c0-35.7-12.5-68.4-33.4-94zM149 306.3c-60.8 0-110.2-49.3-110.2-110.2 0-60.8 49.3-110.2 110.2-110.2 60.8 0 110.2 49.3 110.2 110.2 0 60.8-49.4 110.2-110.2 110.2z"/><path fill="#D22856" d="M149.5 69.6C79.6 69.6 23 126.2 23 196.1s56.6 126.5 126.5 126.5S276 266 276 196.1 219.4 69.6 149.5 69.6zm0 237.2c-60.8 0-110.2-49.3-110.2-110.2 0-60.8 49.3-110.2 110.2-110.2 60.8 0 110.2 49.3 110.2 110.2 0 60.9-49.4 110.2-110.2 110.2z"/><g fill="#D22856"><path d="M144.2 232H84.3v-12.6l21.5-21.7c6.4-6.5 10.5-11 12.5-13.6 2-2.5 3.4-4.9 4.2-7 .9-2.1 1.3-4.4 1.3-6.7 0-3.4-.9-6-2.8-7.7-1.9-1.7-4.4-2.5-7.6-2.5-3.3 0-6.5.8-9.7 2.3-3.1 1.5-6.4 3.7-9.8 6.5l-9.8-11.7c4.2-3.6 7.7-6.1 10.5-7.6s5.8-2.6 9.1-3.4c3.3-.8 7-1.2 11-1.2 5.4 0 10.1 1 14.2 2.9 4.1 2 7.3 4.7 9.6 8.2 2.3 3.5 3.4 7.5 3.4 12.1 0 3.9-.7 7.6-2.1 11.1-1.4 3.5-3.5 7-6.4 10.6-2.9 3.6-8 8.8-15.4 15.5l-11 10.4v.8h37.3V232zM214.6 214.3h-10.3V232h-17.7v-17.8H150v-12.6l37.6-55.3h16.7v53.8h10.3v14.2zm-28-14.1v-14.5c0-2.4.1-5.9.3-10.5.2-4.6.4-7.3.5-8h-.5c-1.4 3.2-3.2 6.3-5.2 9.4L166 200.2h20.6z"/></g></svg>